<?xml version="1.0" encoding="UTF-8" standalone="no"?>
<!-- Created with Inkscape (http://www.inkscape.org/) -->

<svg
   xmlns:dc="http://purl.org/dc/elements/1.1/"
   xmlns:cc="http://creativecommons.org/ns#"
   xmlns:rdf="http://www.w3.org/1999/02/22-rdf-syntax-ns#"
   xmlns:svg="http://www.w3.org/2000/svg"
   xmlns="http://www.w3.org/2000/svg"
   xmlns:sodipodi="http://sodipodi.sourceforge.net/DTD/sodipodi-0.dtd"
   xmlns:inkscape="http://www.inkscape.org/namespaces/inkscape"
   width="44.134415mm"
   height="46.599197mm"
   viewBox="0 0 44.134415 46.599197"
   version="1.1"
   id="svg60"
   inkscape:version="0.92.3 (2405546, 2018-03-11)"
   sodipodi:docname="OC_black.svg">
  <defs
     id="defs54" />
  <sodipodi:namedview
     id="base"
     pagecolor="#ffffff"
     bordercolor="#666666"
     borderopacity="1.0"
     inkscape:pageopacity="0.0"
     inkscape:pageshadow="2"
     inkscape:zoom="0.35"
     inkscape:cx="-110.8821"
     inkscape:cy="228.06147"
     inkscape:document-units="mm"
     inkscape:current-layer="layer1"
     showgrid="false"
     inkscape:window-width="890"
     inkscape:window-height="777"
     inkscape:window-x="16"
     inkscape:window-y="46"
     inkscape:window-maximized="0" />
  <metadata
     id="metadata57">
    <rdf:RDF>
      <cc:Work
         rdf:about="">
        <dc:format>image/svg+xml</dc:format>
        <dc:type
           rdf:resource="http://purl.org/dc/dcmitype/StillImage" />
        <dc:title></dc:title>
      </cc:Work>
    </rdf:RDF>
  </metadata>
  <g
     inkscape:label="Taso 1"
     inkscape:groupmode="layer"
     id="layer1"
     transform="translate(-135.17089,-162.5754)">
    <g
       id="g4760"
       transform="translate(98.608134,-63.723952)">
      <path
         id="path3713"
         d="m 78.157255,256.4751 c 3.957726,5.09047 -2.767101,9.22872 -8.127669,9.14328 -1.354613,1.16031 -2.91593,2.54248 -5.757442,2.37023 -0.915018,-0.0565 -1.806611,-0.4396 -2.707849,-0.678 0.02342,2.0078 0.456131,3.6077 0.507118,5.58794 h -5.925562 c 0.150205,-2.16352 0.402385,-4.22506 0.507118,-6.43406 -0.923287,-0.18603 -1.627463,0.3583 -2.539725,0.5085 -6.045454,0.98943 -15.278309,-1.98575 -13.205739,-9.14328 -0.964629,-0.85576 -1.907205,-1.11897 -2.709224,-2.03261 -3.341744,-3.80339 -1.094162,-9.19289 2.539725,-10.83689 -1.067979,-7.68945 3.093695,-13.18094 10.496515,-11.85251 0.802019,-3.68212 4.327041,-8.42808 8.805665,-6.26456 0.982542,0.47542 1.500685,1.3174 2.370226,2.2021 4.325662,0.0207 6.964606,1.72669 8.804286,4.23196 5.079449,0.79099 7.152019,4.58749 7.112056,10.4979 1.112076,1.58474 2.352312,3.7331 2.370226,6.26456 0.01792,2.68166 -1.242991,4.9003 -2.539725,6.43544"
         style="fill:#000000;fill-opacity:1;fill-rule:evenodd;stroke:none;stroke-width:0.35277778"
         inkscape:connector-curvature="0" />
      <path
         id="path3715"
         d="m 70.199086,241.40487 c -3.282488,-0.58015 -7.069339,0.091 -8.127673,1.35461 -1.245746,1.48966 -0.846112,3.81992 -0.846112,7.28018 0,3.63388 -0.290767,6.42028 1.185111,7.79005 1.160307,1.07624 4.915464,1.52411 7.788674,1.01561 2.013313,-0.35691 2.582442,-1.7818 2.878719,-4.23333 h -2.370226 c 0.0441,2.03261 -2.521807,2.12493 -4.402832,1.69361 -1.153418,-1.10932 -0.846113,-3.26871 -0.846113,-5.41845 0,-2.14698 -0.08406,-4.52686 0.16812,-6.26594 0.595312,-1.02664 2.819467,-0.99356 4.233333,-0.67661 0.500229,0.40376 0.661459,1.14514 0.847492,1.8631 0.771702,-0.0744 1.864488,0.17088 2.370226,-0.1695 -0.124022,-2.42534 -1.11483,-3.92051 -2.878719,-4.23333"
         style="fill:#000000;fill-opacity:1;fill-rule:evenodd;stroke:none;stroke-width:0.35277778"
         inkscape:connector-curvature="0" />
      <path
         id="path3717"
         d="m 51.066401,244.45309 c -0.289387,1.4745 -0.169499,4.10104 -0.169499,6.60356 0,2.63756 -0.585664,5.13595 1.524113,5.41845 2.108397,0.28249 1.52273,-3.46301 1.52273,-5.41845 0,-2.55351 0.128157,-4.79557 -0.16812,-6.60356 -0.595313,-0.81993 -2.115287,-0.81993 -2.709224,0 m -1.52411,-2.87872 c 1.211295,-0.29628 5.058778,-0.40514 6.264561,0 0.853007,0.28663 1.978865,1.5434 2.200727,2.03123 0.724849,1.59163 0.338998,4.0969 0.338998,6.60356 0,3.8213 0.410655,7.47448 -2.539725,8.46666 -1.601279,0.53881 -5.175909,0.53744 -6.773058,0 -1.03904,-0.35002 -2.129067,-1.65227 -2.370226,-2.37022 -0.63803,-1.89894 -0.169499,-3.43683 -0.169499,-6.26594 0,-4.69085 -0.642165,-7.56543 3.048222,-8.46529"
         style="fill:#ffffff;fill-opacity:1;fill-rule:evenodd;stroke:none;stroke-width:0.35277778"
         inkscape:connector-curvature="0" />
      <path
         id="path3719"
         d="m 73.077805,245.6382 c -0.505738,0.34038 -1.598524,0.0951 -2.370226,0.1695 -0.186033,-0.71796 -0.347263,-1.45934 -0.847492,-1.8631 -1.413866,-0.31695 -3.638021,-0.35003 -4.233333,0.67661 -0.25218,1.73908 -0.16812,4.11896 -0.16812,6.26594 0,2.14974 -0.307305,4.30913 0.846113,5.41845 1.881025,0.43132 4.44693,0.339 4.402832,-1.69361 h 2.370226 c -0.296277,2.45153 -0.865406,3.87642 -2.878719,4.23333 -2.87321,0.5085 -6.628367,0.0606 -7.788674,-1.01561 -1.475878,-1.36977 -1.185111,-4.15617 -1.185111,-7.79005 0,-3.46026 -0.399634,-5.79052 0.846112,-7.28018 1.058334,-1.26366 4.845185,-1.93476 8.127673,-1.35461 1.763889,0.31282 2.754697,1.80799 2.878719,4.23333"
         style="fill:#ffffff;fill-opacity:1;fill-rule:evenodd;stroke:none;stroke-width:0.35277778"
         inkscape:connector-curvature="0" />
    </g>
  </g>
</svg>
