<?xml version="1.0" encoding="UTF-8" standalone="no"?>
<!-- Created with Inkscape (http://www.inkscape.org/) -->

<svg
   xmlns:dc="http://purl.org/dc/elements/1.1/"
   xmlns:cc="http://creativecommons.org/ns#"
   xmlns:rdf="http://www.w3.org/1999/02/22-rdf-syntax-ns#"
   xmlns:svg="http://www.w3.org/2000/svg"
   xmlns="http://www.w3.org/2000/svg"
   xmlns:sodipodi="http://sodipodi.sourceforge.net/DTD/sodipodi-0.dtd"
   xmlns:inkscape="http://www.inkscape.org/namespaces/inkscape"
   width="44.134418mm"
   height="46.599197mm"
   viewBox="0 0 44.134418 46.599197"
   version="1.1"
   id="svg173"
   inkscape:version="0.92.3 (2405546, 2018-03-11)"
   sodipodi:docname="OC_green.svg">
  <defs
     id="defs167" />
  <sodipodi:namedview
     id="base"
     pagecolor="#ffffff"
     bordercolor="#666666"
     borderopacity="1.0"
     inkscape:pageopacity="0.0"
     inkscape:pageshadow="2"
     inkscape:zoom="0.35"
     inkscape:cx="1220.5465"
     inkscape:cy="-231.93851"
     inkscape:document-units="mm"
     inkscape:current-layer="layer1"
     showgrid="false"
     inkscape:window-width="2560"
     inkscape:window-height="1363"
     inkscape:window-x="-9"
     inkscape:window-y="-9"
     inkscape:window-maximized="1" />
  <metadata
     id="metadata170">
    <rdf:RDF>
      <cc:Work
         rdf:about="">
        <dc:format>image/svg+xml</dc:format>
        <dc:type
           rdf:resource="http://purl.org/dc/dcmitype/StillImage" />
        <dc:title></dc:title>
      </cc:Work>
    </rdf:RDF>
  </metadata>
  <g
     inkscape:label="Taso 1"
     inkscape:groupmode="layer"
     id="layer1"
     transform="translate(217.10292,-40.867073)">
    <g
       id="g4843"
       transform="translate(-398.0939,-156.92878)">
      <path
         id="path3713-3-4"
         d="m 222.58548,227.97159 c 3.95773,5.09047 -2.7671,9.22872 -8.12767,9.14329 -1.35461,1.16031 -2.91593,2.54248 -5.75744,2.37022 -0.91502,-0.0565 -1.80661,-0.43959 -2.70785,-0.67799 0.0234,2.0078 0.45613,3.6077 0.50712,5.58794 h -5.92556 c 0.1502,-2.16352 0.40238,-4.22506 0.50712,-6.43406 -0.92329,-0.18603 -1.62747,0.35829 -2.53973,0.5085 -6.04545,0.98943 -15.27831,-1.98576 -13.20574,-9.14329 -0.96463,-0.85576 -1.9072,-1.11896 -2.70922,-2.0326 -3.34175,-3.80339 -1.09416,-9.19289 2.53972,-10.8369 -1.06798,-7.68945 3.0937,-13.18093 10.49652,-11.8525 0.80202,-3.68212 4.32704,-8.42808 8.80566,-6.26456 0.98255,0.47542 1.50069,1.3174 2.37023,2.2021 4.32566,0.0207 6.96461,1.72669 8.80429,4.23196 5.07945,0.79099 7.15202,4.58749 7.11205,10.49789 1.11208,1.58474 2.35232,3.73311 2.37023,6.26456 0.0179,2.68167 -1.24299,4.90031 -2.53973,6.43544"
         style="fill:#004b00;fill-opacity:1;fill-rule:evenodd;stroke:none;stroke-width:0.35277781"
         inkscape:connector-curvature="0" />
      <path
         id="path3715-5-7"
         d="m 214.62731,212.90137 c -3.28248,-0.58016 -7.06934,0.091 -8.12767,1.35461 -1.24575,1.48966 -0.84611,3.81992 -0.84611,7.28017 0,3.63389 -0.29077,6.42029 1.18511,7.79005 1.16031,1.07625 4.91546,1.52411 7.78867,1.01562 2.01332,-0.35691 2.58245,-1.7818 2.87872,-4.23333 h -2.37022 c 0.0441,2.0326 -2.52181,2.12493 -4.40284,1.6936 -1.15341,-1.10932 -0.84611,-3.2687 -0.84611,-5.41844 0,-2.14698 -0.0841,-4.52686 0.16812,-6.26594 0.59531,-1.02664 2.81947,-0.99357 4.23334,-0.67662 0.50022,0.40377 0.66145,1.14515 0.84749,1.86311 0.7717,-0.0744 1.86448,0.17088 2.37022,-0.1695 -0.12402,-2.42535 -1.11483,-3.92052 -2.87872,-4.23333"
         style="fill:#000000;fill-opacity:1;fill-rule:evenodd;stroke:none;stroke-width:0.35277781"
         inkscape:connector-curvature="0" />
      <path
         id="path3717-7-3"
         d="m 195.49463,215.94959 c -0.28939,1.4745 -0.1695,4.10104 -0.1695,6.60356 0,2.63756 -0.58566,5.13595 1.52411,5.41844 2.1084,0.2825 1.52273,-3.46301 1.52273,-5.41844 0,-2.55351 0.12816,-4.79558 -0.16812,-6.60356 -0.59531,-0.81994 -2.11528,-0.81994 -2.70922,0 m -1.52411,-2.87872 c 1.21129,-0.29628 5.05878,-0.40515 6.26456,0 0.85301,0.28663 1.97886,1.5434 2.20073,2.03122 0.72485,1.59164 0.339,4.09691 0.339,6.60356 0,3.8213 0.41065,7.47448 -2.53973,8.46667 -1.60128,0.53881 -5.17591,0.53744 -6.77306,0 -1.03904,-0.35002 -2.12907,-1.65227 -2.37022,-2.37023 -0.63803,-1.89893 -0.1695,-3.43682 -0.1695,-6.26594 0,-4.69084 -0.64217,-7.56542 3.04822,-8.46528"
         style="fill:#ffffff;fill-opacity:1;fill-rule:evenodd;stroke:none;stroke-width:0.35277781"
         inkscape:connector-curvature="0" />
      <path
         id="path3719-4-5"
         d="m 217.50603,217.1347 c -0.50574,0.34038 -1.59852,0.0951 -2.37022,0.1695 -0.18604,-0.71796 -0.34727,-1.45934 -0.84749,-1.86311 -1.41387,-0.31695 -3.63803,-0.35002 -4.23334,0.67662 -0.25218,1.73908 -0.16812,4.11896 -0.16812,6.26594 0,2.14974 -0.3073,4.30912 0.84611,5.41844 1.88103,0.43133 4.44693,0.339 4.40284,-1.6936 h 2.37022 c -0.29627,2.45153 -0.8654,3.87642 -2.87872,4.23333 -2.87321,0.50849 -6.62836,0.0606 -7.78867,-1.01562 -1.47588,-1.36976 -1.18511,-4.15616 -1.18511,-7.79005 0,-3.46025 -0.39964,-5.79051 0.84611,-7.28017 1.05833,-1.26366 4.84519,-1.93477 8.12767,-1.35461 1.76389,0.31281 2.7547,1.80798 2.87872,4.23333"
         style="fill:#ffffff;fill-opacity:1;fill-rule:evenodd;stroke:none;stroke-width:0.35277781"
         inkscape:connector-curvature="0" />
    </g>
  </g>
</svg>
