<?xml version="1.0" encoding="UTF-8" standalone="no"?>
<!-- Created with Inkscape (http://www.inkscape.org/) -->

<svg
   xmlns:dc="http://purl.org/dc/elements/1.1/"
   xmlns:cc="http://creativecommons.org/ns#"
   xmlns:rdf="http://www.w3.org/1999/02/22-rdf-syntax-ns#"
   xmlns:svg="http://www.w3.org/2000/svg"
   xmlns="http://www.w3.org/2000/svg"
   xmlns:sodipodi="http://sodipodi.sourceforge.net/DTD/sodipodi-0.dtd"
   xmlns:inkscape="http://www.inkscape.org/namespaces/inkscape"
   width="121.24136mm"
   height="46.599197mm"
   viewBox="0 0 121.24136 46.599197"
   version="1.1"
   id="svg279"
   inkscape:version="0.92.3 (2405546, 2018-03-11)"
   sodipodi:docname="OC_puisto_green.svg">
  <defs
     id="defs273" />
  <sodipodi:namedview
     id="base"
     pagecolor="#ffffff"
     bordercolor="#666666"
     borderopacity="1.0"
     inkscape:pageopacity="0.0"
     inkscape:pageshadow="2"
     inkscape:zoom="0.35"
     inkscape:cx="1189.1175"
     inkscape:cy="-331.93852"
     inkscape:document-units="mm"
     inkscape:current-layer="layer1"
     showgrid="false"
     inkscape:window-width="2560"
     inkscape:window-height="1363"
     inkscape:window-x="-9"
     inkscape:window-y="-9"
     inkscape:window-maximized="1" />
  <metadata
     id="metadata276">
    <rdf:RDF>
      <cc:Work
         rdf:about="">
        <dc:format>image/svg+xml</dc:format>
        <dc:type
           rdf:resource="http://purl.org/dc/dcmitype/StillImage" />
        <dc:title></dc:title>
      </cc:Work>
    </rdf:RDF>
  </metadata>
  <g
     inkscape:label="Taso 1"
     inkscape:groupmode="layer"
     id="layer1"
     transform="translate(208.78734,-14.408735)">
    <path
       inkscape:connector-curvature="0"
       style="fill:#004b00;fill-opacity:1;fill-rule:evenodd;stroke:none;stroke-width:0.35277781"
       d="m -167.19284,44.584472 c 3.95772,5.09047 -2.76711,9.22872 -8.12767,9.143291 -1.35462,1.160309 -2.91593,2.542479 -5.75744,2.37022 -0.91502,-0.0565 -1.80662,-0.43959 -2.70785,-0.67799 0.0234,2.007799 0.45613,3.6077 0.50711,5.587939 h -5.92556 c 0.15021,-2.163519 0.40239,-4.22506 0.50712,-6.434061 -0.92329,-0.186028 -1.62746,0.358291 -2.53973,0.5085 -6.04545,0.989431 -15.27831,-1.985758 -13.20574,-9.143288 -0.96462,-0.85576 -1.9072,-1.11896 -2.70922,-2.0326 -3.34174,-3.803391 -1.09416,-9.192891 2.53972,-10.836901 -1.06797,-7.68945 3.0937,-13.18093 10.49652,-11.8525 0.80202,-3.68212 4.32704,-8.42808 8.80567,-6.26456 0.98254,0.47542 1.50068,1.3174 2.37022,2.2021 4.32566,0.0207 6.96461,1.72669 8.80429,4.23196 5.07945,0.79099 7.15202,4.58749 7.11206,10.49789 1.11207,1.58474 2.35231,3.73311 2.37022,6.26456 0.0179,2.68167 -1.24299,4.900309 -2.53972,6.43544"
       id="path3713-3" />
    <path
       inkscape:connector-curvature="0"
       style="fill:#000000;fill-opacity:1;fill-rule:evenodd;stroke:none;stroke-width:0.35277781"
       d="m -175.15101,29.514252 c -3.28249,-0.58016 -7.06934,0.091 -8.12768,1.35461 -1.24574,1.48966 -0.84611,3.81992 -0.84611,7.28017 0,3.633889 -0.29077,6.42029 1.18511,7.790051 1.16031,1.076248 4.91547,1.524109 7.78868,1.015619 2.01331,-0.356909 2.58244,-1.781799 2.87872,-4.23333 h -2.37023 c 0.0441,2.0326 -2.52181,2.124929 -4.40283,1.6936 -1.15342,-1.109321 -0.84612,-3.268699 -0.84612,-5.41844 0,-2.14698 -0.0841,-4.52686 0.16812,-6.26594 0.59532,-1.02664 2.81947,-0.99357 4.23334,-0.67662 0.50023,0.40377 0.66146,1.14515 0.84749,1.86311 0.7717,-0.0744 1.86449,0.17088 2.37023,-0.1695 -0.12403,-2.42535 -1.11484,-3.92052 -2.87872,-4.23333"
       id="path3715-5" />
    <path
       inkscape:connector-curvature="0"
       style="fill:#ffffff;fill-opacity:1;fill-rule:evenodd;stroke:none;stroke-width:0.35277781"
       d="m -194.2837,32.562472 c -0.28939,1.4745 -0.1695,4.10104 -0.1695,6.60356 0,2.637561 -0.58566,5.13595 1.52411,5.41844 2.1084,0.282501 1.52273,-3.463009 1.52273,-5.41844 0,-2.55351 0.12816,-4.79558 -0.16812,-6.60356 -0.59531,-0.81994 -2.11528,-0.81994 -2.70922,0 m -1.52411,-2.87872 c 1.2113,-0.29628 5.05878,-0.40515 6.26456,0 0.85301,0.28663 1.97887,1.5434 2.20073,2.03122 0.72485,1.59164 0.339,4.09691 0.339,6.60356 0,3.821301 0.41065,7.47448 -2.53973,8.46667 -1.60128,0.538811 -5.17591,0.53744 -6.77306,0 -1.03904,-0.35002 -2.12906,-1.65227 -2.37022,-2.37023 -0.63803,-1.89893 -0.1695,-3.436821 -0.1695,-6.26594 0,-4.69084 -0.64217,-7.56542 3.04822,-8.46528"
       id="path3717-7" />
    <path
       inkscape:connector-curvature="0"
       style="fill:#ffffff;fill-opacity:1;fill-rule:evenodd;stroke:none;stroke-width:0.35277781"
       d="m -172.27229,33.747582 c -0.50574,0.34038 -1.59853,0.0951 -2.37023,0.1695 -0.18603,-0.71796 -0.34726,-1.45934 -0.84749,-1.86311 -1.41387,-0.31695 -3.63802,-0.35002 -4.23334,0.67662 -0.25218,1.73908 -0.16812,4.11896 -0.16812,6.26594 0,2.149741 -0.3073,4.309119 0.84612,5.41844 1.88102,0.431329 4.44693,0.339 4.40283,-1.6936 h 2.37023 c -0.29628,2.451531 -0.86541,3.876421 -2.87872,4.23333 -2.87321,0.50849 -6.62837,0.0606 -7.78868,-1.015619 -1.47588,-1.369761 -1.18511,-4.156162 -1.18511,-7.790051 0,-3.46025 -0.39963,-5.79051 0.84611,-7.28017 1.05834,-1.26366 4.84519,-1.93477 8.12768,-1.35461 1.76388,0.31281 2.75469,1.80798 2.87872,4.23333"
       id="path3719-4" />
    <path
       inkscape:connector-curvature="0"
       style="fill:#004b00;fill-opacity:1;fill-rule:evenodd;stroke:none;stroke-width:0.35277781"
       d="m -155.67933,37.133422 c 1.19751,-0.13091 2.22415,0.1943 3.04822,-0.50712 1.14239,-0.97565 0.9343,-3.96875 0.16949,-4.74183 -0.85162,-0.85989 -1.8948,-0.3638 -3.38721,-0.50711 0.10473,1.86999 -0.21497,4.1658 0.1695,5.75606 m 0,1.69361 c -0.38861,2.207621 -0.0606,5.131809 -0.1695,7.61917 h -3.72484 c 0.113,-5.58794 -0.226,-11.62651 0.1695,-16.93195 4.19061,0.28663 9.45747,-1.10381 10.83689,2.20072 0.5898,1.41663 0.59256,4.09829 -0.1695,5.41845 -1.06936,1.85208 -3.6077,1.82452 -6.94255,1.69361"
       id="path3721-3" />
    <path
       inkscape:connector-curvature="0"
       style="fill:#004b00;fill-opacity:1;fill-rule:evenodd;stroke:none;stroke-width:0.35277781"
       d="m -141.7956,29.514252 v 8.46666 c 0,2.67478 -0.72209,6.52777 1.86311,6.60356 2.78226,0.0813 2.03123,-3.88882 2.03123,-6.60356 v -8.46666 h 3.72621 v 7.61917 c 0,4.06383 0.53606,8.145589 -2.5411,9.14328 -1.75562,0.570511 -5.37297,0.490591 -6.77168,-0.1695 -2.38814,-1.124479 -2.03261,-4.513069 -2.03261,-8.80428 0,-2.95176 -0.13367,-5.94761 0.1695,-7.78867 z m 0,0"
       id="path3723-4" />
    <path
       inkscape:connector-curvature="0"
       style="fill:#004b00;fill-opacity:1;fill-rule:evenodd;stroke:none;stroke-width:0.35277781"
       d="m -126.04876,29.514252 v 16.93195 h -3.72484 c 0.11301,-5.58794 -0.22599,-11.62651 0.1695,-16.93195 z m 0,0"
       id="path3725-6" />
    <path
       inkscape:connector-curvature="0"
       style="fill:#004b00;fill-opacity:1;fill-rule:evenodd;stroke:none;stroke-width:0.35277781"
       d="m -112.6997,33.239082 c -2.38401,0.63803 -1.62884,-1.58336 -3.21772,-1.86172 -1.2609,-0.22187 -2.36885,0.65456 -2.37022,1.86172 -0.001,1.23197 1.48001,2.56178 2.53972,3.72484 0.87368,0.96049 2.34128,1.90445 2.87734,3.21772 1.0666,2.60863 -0.31143,5.775361 -2.70922,6.26456 -1.87276,0.38172 -4.13687,0.0978 -5.07807,-0.507119 -0.90951,-0.58566 -1.02526,-1.09416 -1.35599,-3.217711 h 1.52411 c 0.60772,0.296269 0.41203,1.30775 1.18649,1.6936 1.4621,0.72898 3.12815,-0.139179 2.87734,-2.032601 -0.16812,-1.273309 -1.67569,-2.430859 -2.70922,-3.555339 -1.46623,-1.59853 -4.40559,-4.59025 -2.20073,-7.78867 1.76803,-2.56453 9.45197,-2.37574 8.63617,2.20072"
       id="path3727-4" />
    <path
       inkscape:connector-curvature="0"
       style="fill:#004b00;fill-opacity:1;fill-rule:evenodd;stroke:none;stroke-width:0.35277781"
       d="m -100.15679,29.514252 v 1.86311 h -3.72484 c -0.3955,4.68395 -0.0565,10.102391 -0.1695,15.06884 h -3.72484 v -15.06884 h -3.72484 c 0.10749,-0.57051 -0.21773,-1.57373 0.1695,-1.86311 z m 0,0"
       id="path3729-4" />
    <path
       inkscape:connector-curvature="0"
       style="fill:#004b00;fill-opacity:1;fill-rule:evenodd;stroke:none;stroke-width:0.35277781"
       d="m -95.233057,39.335522 c 0,3.089569 -0.007,5.308211 2.0326,5.24895 1.9954,-0.0593 1.86173,-2.396411 1.86173,-5.58794 0,-3.27836 0.75241,-8.45289 -2.53972,-7.44968 -2.02848,0.61737 -1.35461,4.47587 -1.35461,7.78867 m -0.67662,-9.65177 c 3.2563,-0.74001 7.08863,-0.051 7.95817,2.03122 0.62838,1.50758 0.339,3.60909 0.339,6.26594 0,3.155711 0.35415,6.42304 -1.52411,7.787301 -1.72255,1.25264 -6.50159,0.945329 -7.78868,0.338989 -2.22828,-1.048679 -2.03122,-4.40558 -2.03122,-7.95817 0,-4.47035 -0.61599,-7.63295 3.04684,-8.46528"
       id="path3731-8" />
  </g>
</svg>
