<?xml version="1.0" encoding="UTF-8" standalone="no"?>
<!-- Created with Inkscape (http://www.inkscape.org/) -->

<svg
   xmlns:dc="http://purl.org/dc/elements/1.1/"
   xmlns:cc="http://creativecommons.org/ns#"
   xmlns:rdf="http://www.w3.org/1999/02/22-rdf-syntax-ns#"
   xmlns:svg="http://www.w3.org/2000/svg"
   xmlns="http://www.w3.org/2000/svg"
   xmlns:sodipodi="http://sodipodi.sourceforge.net/DTD/sodipodi-0.dtd"
   xmlns:inkscape="http://www.inkscape.org/namespaces/inkscape"
   width="390.71439mm"
   height="66.410828mm"
   viewBox="0 0 390.71436 66.410828"
   version="1.1"
   id="svg279"
   inkscape:version="0.92.3 (2405546, 2018-03-11)"
   sodipodi:docname="OC_puisto_bg.svg">
  <defs
     id="defs273" />
  <sodipodi:namedview
     id="base"
     pagecolor="#ffffff"
     bordercolor="#666666"
     borderopacity="1.0"
     inkscape:pageopacity="0.0"
     inkscape:pageshadow="2"
     inkscape:zoom="0.7"
     inkscape:cx="550.657"
     inkscape:cy="344.21622"
     inkscape:document-units="mm"
     inkscape:current-layer="layer1"
     showgrid="false"
     inkscape:window-width="2560"
     inkscape:window-height="1363"
     inkscape:window-x="-9"
     inkscape:window-y="-9"
     inkscape:window-maximized="1" />
  <metadata
     id="metadata276">
    <rdf:RDF>
      <cc:Work
         rdf:about="">
        <dc:format>image/svg+xml</dc:format>
        <dc:type
           rdf:resource="http://purl.org/dc/dcmitype/StillImage" />
        <dc:title />
      </cc:Work>
    </rdf:RDF>
  </metadata>
  <g
     inkscape:label="Taso 1"
     inkscape:groupmode="layer"
     id="layer1"
     transform="translate(436.83346,2.6287006)">
    <path
       style="fill:#e0e0e0;fill-opacity:1;fill-rule:evenodd;stroke:none;stroke-width:0.35277781"
       d="m -382.16403,6.4727821 c -0.0965,-0.0026 -0.19219,-0.0019 -0.28732,0.0016 -3.29779,0.119618 -5.74693,3.8135439 -6.39857,6.8052669 -7.40282,-1.32843 -11.56449,4.163056 -10.49652,11.852506 -3.63388,1.64401 -5.88164,7.033674 -2.5399,10.837064 0.80202,0.913641 1.74478,1.176674 2.7094,2.032434 -2.07257,7.15753 7.15994,10.132542 13.20539,9.143111 0.91227,-0.150209 1.61661,-0.694523 2.5399,-0.508495 -0.10473,2.209001 -0.35674,4.270714 -0.50695,6.434233 h 5.92522 c -0.051,-1.980239 -0.48354,-3.579974 -0.50694,-5.587772 0.90123,0.2384 1.79282,0.621493 2.70784,0.677994 2.84151,0.172257 4.40265,-1.21009 5.75727,-2.370399 5.36057,0.08543 12.08539,-4.052641 8.12767,-9.143111 1.29673,-1.535131 2.5578,-3.754112 2.5399,-6.435782 -0.0179,-2.53145 -1.25833,-4.679477 -2.3704,-6.264217 0.04,-5.9104 -2.03226,-9.707078 -7.11171,-10.498067 -1.83968,-2.50527 -4.47897,-4.2110834 -8.80463,-4.2317824 -0.86954,-0.8846994 -1.38734,-1.7270291 -2.36988,-2.2024488 -0.73478,-0.3549517 -1.44412,-0.5239327 -2.11977,-0.5420857 z m 9.77253,14.8931459 c 0.83316,-0.0011 1.68517,0.0658 2.50579,0.21084 1.76388,0.31281 2.75487,1.807983 2.8789,4.233333 -0.50574,0.34038 -1.5987,0.0951 -2.3704,0.169499 -0.18603,-0.71796 -0.34726,-1.459166 -0.84749,-1.862936 -1.41387,-0.31695 -3.63802,-0.350195 -4.23334,0.676445 -0.25218,1.73908 -0.16795,4.118787 -0.16795,6.265767 0,2.14974 -0.30747,4.309471 0.84595,5.418792 1.88102,0.431329 4.44693,0.338645 4.40283,-1.693955 h 2.3704 c -0.29628,2.451531 -0.86559,3.876426 -2.8789,4.233333 -2.87321,0.508489 -6.62836,0.06078 -7.78867,-1.015442 -1.47588,-1.369761 -1.18494,-4.156331 -1.18494,-7.790221 0,-3.46025 -0.3998,-5.790516 0.84594,-7.280176 0.79376,-0.947745 3.12242,-1.56205 5.62188,-1.565279 z m -15.01665,0.117305 c 1.264,-0.01361 2.52767,0.06046 3.13056,0.263033 0.85301,0.28663 1.97852,1.543581 2.20038,2.031401 0.72485,1.59164 0.339,4.096564 0.339,6.603215 0,3.8213 0.411,7.474476 -2.53938,8.466667 -1.60128,0.53881 -5.17608,0.53744 -6.77323,0 -1.03904,-0.35002 -2.12924,-1.651921 -2.3704,-2.369881 -0.63803,-1.898931 -0.1695,-3.437165 -0.1695,-6.266285 0,-4.69084 -0.642,-7.565256 3.04839,-8.465117 0.60565,-0.148139 1.87017,-0.249424 3.13418,-0.263033 z m -0.2558,2.526978 c -0.52865,0 -1.05747,0.204979 -1.35444,0.614949 -0.28939,1.474501 -0.1695,4.100695 -0.1695,6.603215 0,2.637562 -0.58531,5.1363 1.52446,5.41879 2.1084,0.282501 1.52238,-3.463359 1.52238,-5.41879 0,-2.55351 0.12834,-4.795235 -0.16794,-6.603215 -0.29766,-0.40997 -0.82631,-0.614949 -1.35496,-0.614949 z"
       id="path3713-3"
       inkscape:connector-curvature="0" />
    <path
       inkscape:connector-curvature="0"
       style="fill:#e0e0e0;fill-opacity:1;fill-rule:evenodd;stroke:none;stroke-width:0.35277781"
       d="m -350.41389,29.195917 c 1.19751,-0.13091 2.22415,0.1943 3.04822,-0.50712 1.14239,-0.97565 0.9343,-3.96875 0.16949,-4.74183 -0.85162,-0.85989 -1.8948,-0.3638 -3.38721,-0.50711 0.10473,1.86999 -0.21497,4.1658 0.1695,5.75606 m 0,1.69361 c -0.38861,2.207621 -0.0606,5.131809 -0.1695,7.61917 h -3.72484 c 0.113,-5.58794 -0.226,-11.62651 0.1695,-16.93195 4.19061,0.28663 9.45747,-1.10381 10.83689,2.20072 0.5898,1.41663 0.59256,4.09829 -0.1695,5.41845 -1.06936,1.85208 -3.6077,1.82452 -6.94255,1.69361"
       id="path3721-3" />
    <path
       inkscape:connector-curvature="0"
       style="fill:#e0e0e0;fill-opacity:1;fill-rule:evenodd;stroke:none;stroke-width:0.35277781"
       d="m -336.53016,21.576747 v 8.46666 c 0,2.67478 -0.72209,6.52777 1.86311,6.60356 2.78226,0.0813 2.03123,-3.88882 2.03123,-6.60356 v -8.46666 h 3.72621 v 7.61917 c 0,4.06383 0.53606,8.145589 -2.5411,9.14328 -1.75562,0.570511 -5.37297,0.490591 -6.77168,-0.1695 -2.38814,-1.124479 -2.03261,-4.513069 -2.03261,-8.80428 0,-2.95176 -0.13367,-5.94761 0.1695,-7.78867 z m 0,0"
       id="path3723-4" />
    <path
       inkscape:connector-curvature="0"
       style="fill:#e0e0e0;fill-opacity:1;fill-rule:evenodd;stroke:none;stroke-width:0.35277781"
       d="m -320.78332,21.576747 v 16.93195 h -3.72484 c 0.11301,-5.58794 -0.22599,-11.62651 0.1695,-16.93195 z m 0,0"
       id="path3725-6" />
    <path
       inkscape:connector-curvature="0"
       style="fill:#e0e0e0;fill-opacity:1;fill-rule:evenodd;stroke:none;stroke-width:0.35277781"
       d="m -307.43426,25.301577 c -2.38401,0.63803 -1.62884,-1.58336 -3.21772,-1.86172 -1.2609,-0.22187 -2.36885,0.65456 -2.37022,1.86172 -10e-4,1.23197 1.48001,2.56178 2.53972,3.72484 0.87368,0.96049 2.34128,1.90445 2.87734,3.21772 1.0666,2.60863 -0.31143,5.775361 -2.70922,6.26456 -1.87276,0.38172 -4.13687,0.0978 -5.07807,-0.507119 -0.90951,-0.58566 -1.02526,-1.09416 -1.35599,-3.217711 h 1.52411 c 0.60772,0.296269 0.41203,1.30775 1.18649,1.6936 1.4621,0.72898 3.12815,-0.139179 2.87734,-2.032601 -0.16812,-1.273309 -1.67569,-2.430859 -2.70922,-3.555339 -1.46623,-1.59853 -4.40559,-4.59025 -2.20073,-7.78867 1.76803,-2.56453 9.45197,-2.37574 8.63617,2.20072"
       id="path3727-4" />
    <path
       inkscape:connector-curvature="0"
       style="fill:#e0e0e0;fill-opacity:1;fill-rule:evenodd;stroke:none;stroke-width:0.35277781"
       d="m -294.89135,21.576747 v 1.86311 h -3.72484 c -0.3955,4.68395 -0.0565,10.102391 -0.1695,15.06884 h -3.72484 v -15.06884 h -3.72484 c 0.10749,-0.57051 -0.21773,-1.57373 0.1695,-1.86311 z m 0,0"
       id="path3729-4" />
    <path
       inkscape:connector-curvature="0"
       style="fill:#e0e0e0;fill-opacity:1;fill-rule:evenodd;stroke:none;stroke-width:0.35277781"
       d="m -289.96759,31.398017 c 0,3.089569 -0.007,5.308211 2.03261,5.24895 1.99541,-0.0593 1.86174,-2.396411 1.86174,-5.58794 0,-3.27836 0.75242,-8.45289 -2.53973,-7.44968 -2.02849,0.61737 -1.35462,4.47587 -1.35462,7.78867 m -0.67662,-9.65177 c 3.25632,-0.74001 7.08867,-0.051 7.95821,2.03122 0.62839,1.50758 0.33901,3.60909 0.33901,6.26594 0,3.155711 0.35415,6.42304 -1.52412,7.787301 -1.72256,1.25264 -6.50163,0.945329 -7.78873,0.338989 -2.22829,-1.048679 -2.03123,-4.40558 -2.03123,-7.95817 0,-4.47035 -0.61599,-7.63295 3.04686,-8.46528"
       id="path3731-8" />
  </g>
  <g
     inkscape:groupmode="layer"
     id="layer2"
     inkscape:label="Taso 2"
     style="display:inline"
     transform="translate(228.04612,17.037436)">
    <path
       inkscape:connector-curvature="0"
       style="fill:#f8f8f8;fill-opacity:1;fill-rule:evenodd;stroke:none;stroke-width:0.35277781"
       d="m -173.57599,-8.1359998 c -0.0965,-0.0026 -0.19219,-0.0019 -0.28732,0.0016 -3.29781,0.119619 -5.74697,3.8135471 -6.39861,6.8052701 -7.40287,-1.3284301 -11.56456,4.1630559 -10.49659,11.8525017 -3.6339,1.64401 -5.88166,7.033674 -2.5399,10.837064 0.80202,0.913641 1.74478,1.176674 2.7094,2.032434 -2.07258,7.157533 7.15999,10.132543 13.20548,9.143113 0.91227,-0.15021 1.61661,-0.69452 2.53991,-0.5085 -0.10473,2.209 -0.35674,4.27072 -0.50695,6.43424 h 5.92525 c -0.051,-1.98024 -0.48355,-3.57998 -0.50695,-5.58778 0.90124,0.2384 1.79284,0.6215 2.70787,0.678 2.84152,0.17226 4.40267,-1.21009 5.7573,-2.3704 5.36059,0.0854 12.08546,-4.052642 8.12772,-9.143112 1.29673,-1.535131 2.55781,-3.754113 2.53991,-6.435783 -0.0179,-2.531449 -1.25834,-4.679477 -2.37041,-6.2642164 0.04,-5.9103957 -2.03228,-9.70707341 -7.11175,-10.4980633 -1.8397,-2.5052701 -4.479,-4.211083 -8.80469,-4.231783 -0.86954,-0.8847 -1.38735,-1.7270291 -2.36989,-2.2024491 -0.73478,-0.354953 -1.44413,-0.523933 -2.11978,-0.542086 z m 9.77259,14.8931459 c 0.83316,-0.0011 1.68517,0.0658 2.5058,0.2108387 1.76389,0.31281 2.75488,1.8079831 2.87891,4.2333322 -0.50574,0.34038 -1.59871,0.0951 -2.37041,0.169499 -0.18603,-0.717961 -0.34727,-1.4591657 -0.8475,-1.8629357 -1.41388,-0.3169497 -3.63803,-0.3501947 -4.23336,0.6764447 -0.25218,1.73908 -0.16795,4.118787 -0.16795,6.265767 0,2.14974 -0.30748,4.30947 0.84595,5.418792 1.88103,0.431329 4.44696,0.338645 4.40286,-1.693955 h 2.37041 c -0.29628,2.451531 -0.86559,3.876426 -2.87891,4.233333 -2.87323,0.508489 -6.6284,0.06078 -7.78872,-1.015442 -1.47589,-1.369761 -1.18494,-4.156331 -1.18494,-7.790222 0,-3.46025 -0.3998,-5.7905147 0.84594,-7.2801738 0.79376,-0.9477447 3.12244,-1.5620501 5.62192,-1.5652781 z m -15.01674,0.1173047 c 1.26401,-0.01361 2.52768,0.06046 3.13057,0.263033 0.85302,0.2866297 1.97853,1.5435801 2.2004,2.0313998 0.72485,1.5916394 0.33899,4.0965634 0.33899,6.6032134 0,3.821301 0.41101,7.474477 -2.53939,8.466668 -1.60129,0.53881 -5.17611,0.53744 -6.77327,0 -1.03904,-0.35002 -2.12925,-1.651921 -2.37041,-2.369881 -0.63803,-1.898931 -0.1695,-3.437165 -0.1695,-6.266286 0,-4.690839 -0.642,-7.5652548 3.04841,-8.4651142 0.60566,-0.14814 1.87018,-0.249424 3.1342,-0.263033 z m -0.2558,2.5269768 c -0.52866,0 -1.05748,0.2049787 -1.35445,0.6149484 -0.28939,1.4745 -0.1695,4.100695 -0.1695,6.603215 0,2.637561 -0.58532,5.1363 1.52446,5.41879 2.10841,0.282501 1.5224,-3.463359 1.5224,-5.41879 0,-2.55351 0.12833,-4.795235 -0.16795,-6.603215 -0.29766,-0.4099697 -0.82631,-0.6149484 -1.35496,-0.6149484 z"
       id="path3713-3-2" />
    <path
       inkscape:connector-curvature="0"
       style="fill:#f8f8f8;fill-opacity:1;fill-rule:evenodd;stroke:none;stroke-width:0.35277781"
       d="m -141.82567,14.587133 c 1.19752,-0.13091 2.22416,0.1943 3.04824,-0.50712 1.14239,-0.97565 0.9343,-3.96875 0.16949,-4.7418294 -0.85163,-0.8598897 -1.89481,-0.3638 -3.38723,-0.5071097 0.10473,1.8699891 -0.21497,4.1657991 0.1695,5.7560591 m 0,1.69361 c -0.38861,2.20762 -0.0606,5.131809 -0.1695,7.61917 h -3.72486 c 0.113,-5.58794 -0.226,-11.62651 0.1695,-16.9319482 4.19063,0.28663 9.45752,-1.1038094 10.83695,2.2007188 0.5898,1.4166294 0.59256,4.0982894 -0.1695,5.4184494 -1.06936,1.85208 -3.60772,1.82452 -6.94259,1.69361"
       id="path3721-3-8" />
    <path
       inkscape:connector-curvature="0"
       style="fill:#f8f8f8;fill-opacity:1;fill-rule:evenodd;stroke:none;stroke-width:0.35277781"
       d="m -127.94186,6.9679648 v 8.4666582 c 0,2.67478 -0.7221,6.52777 1.86312,6.60356 2.78227,0.0813 2.03124,-3.88882 2.03124,-6.60356 V 6.9679648 h 3.72623 v 7.6191682 c 0,4.06383 0.53607,8.145589 -2.54111,9.14328 -1.75563,0.57051 -5.373,0.49059 -6.77172,-0.1695 -2.38816,-1.12448 -2.03262,-4.51307 -2.03262,-8.80428 0,-2.95176 -0.13367,-5.9476091 0.1695,-7.7886682 z m 0,0"
       id="path3723-4-4" />
    <path
       inkscape:connector-curvature="0"
       style="fill:#f8f8f8;fill-opacity:1;fill-rule:evenodd;stroke:none;stroke-width:0.35277781"
       d="M -112.19493,6.9679648 V 23.899913 h -3.72487 c 0.11302,-5.58794 -0.22598,-11.62651 0.16951,-16.9319482 z m 0,0"
       id="path3725-6-2" />
    <path
       inkscape:connector-curvature="0"
       style="fill:#f8f8f8;fill-opacity:1;fill-rule:evenodd;stroke:none;stroke-width:0.35277781"
       d="m -98.845806,10.692793 c -2.384014,0.63803 -1.628844,-1.5833594 -3.217724,-1.8617191 -1.26091,-0.22187 -2.36887,0.6545594 -2.37024,1.8617191 -0.001,1.23197 1.48002,2.56178 2.53974,3.72484 0.87368,0.96049 2.341284,1.90445 2.877343,3.21772 1.066601,2.608629 -0.311428,5.775361 -2.709233,6.26456 -1.87276,0.381719 -4.13689,0.0978 -5.07809,-0.507119 -0.90952,-0.585661 -1.02527,-1.094161 -1.356,-3.217712 h 1.52412 c 0.60772,0.29627 0.41203,1.307751 1.18649,1.693601 1.46211,0.72898 3.12817,-0.139179 2.87736,-2.032601 -0.16812,-1.27331 -1.6757,-2.430859 -2.70923,-3.555339 -1.46624,-1.59853 -4.40562,-4.59025 -2.20075,-7.7886691 1.76805,-2.5645285 9.452014,-2.3757385 8.636214,2.2007191"
       id="path3727-4-3" />
    <path
       inkscape:connector-curvature="0"
       style="fill:#f8f8f8;fill-opacity:1;fill-rule:evenodd;stroke:none;stroke-width:0.35277781"
       d="m -86.302939,6.9679648 v 1.8631091 h -3.724819 c -0.3955,4.6839491 -0.0565,10.1023901 -0.1695,15.0688391 h -3.724819 V 8.8310739 h -3.724838 c 0.107489,-0.5705097 -0.217731,-1.5737291 0.1695,-1.8631091 z m 0,0"
       id="path3729-4-8" />
    <path
       inkscape:connector-curvature="0"
       style="fill:#f8f8f8;fill-opacity:1;fill-rule:evenodd;stroke:none;stroke-width:0.35277781"
       d="m -81.379239,16.789233 c 0,3.089569 -0.007,5.308211 2.032588,5.24895 1.995391,-0.0593 1.861721,-2.396411 1.861721,-5.58794 0,-3.27836 0.752404,-8.4528888 -2.539705,-7.4496794 -2.028468,0.6173697 -1.354604,4.4758694 -1.354604,7.7886694 m -0.676614,-9.6517682 c 3.256279,-0.7400097 7.088588,-0.051 7.958125,2.0312188 0.628374,1.5075794 0.338997,3.6090894 0.338997,6.2659394 0,3.155711 0.354147,6.42304 -1.524101,7.7873 -1.722541,1.252641 -6.501554,0.94533 -7.788638,0.33899 -2.228265,-1.048679 -2.031208,-4.40558 -2.031208,-7.95817 0,-4.47035 -0.615987,-7.6329488 3.046825,-8.4652782"
       id="path3731-8-9" />
    <g
       inkscape:groupmode="layer"
       id="layer3"
       inkscape:label="Taso 3" />
  </g>
</svg>
