<?xml version="1.0" encoding="UTF-8" standalone="no"?>
<!-- Created with Inkscape (http://www.inkscape.org/) -->

<svg
   xmlns:dc="http://purl.org/dc/elements/1.1/"
   xmlns:cc="http://creativecommons.org/ns#"
   xmlns:rdf="http://www.w3.org/1999/02/22-rdf-syntax-ns#"
   xmlns:svg="http://www.w3.org/2000/svg"
   xmlns="http://www.w3.org/2000/svg"
   xmlns:sodipodi="http://sodipodi.sourceforge.net/DTD/sodipodi-0.dtd"
   xmlns:inkscape="http://www.inkscape.org/namespaces/inkscape"
   width="121.24136mm"
   height="46.599201mm"
   viewBox="0 0 121.24136 46.599201"
   version="1.1"
   id="svg208"
   inkscape:version="0.92.3 (2405546, 2018-03-11)"
   sodipodi:docname="OC_puisto_black.svg">
  <defs
     id="defs202" />
  <sodipodi:namedview
     id="base"
     pagecolor="#ffffff"
     bordercolor="#666666"
     borderopacity="1.0"
     inkscape:pageopacity="0.0"
     inkscape:pageshadow="2"
     inkscape:zoom="0.35"
     inkscape:cx="1306.2604"
     inkscape:cy="-1214.7957"
     inkscape:document-units="mm"
     inkscape:current-layer="layer1"
     showgrid="false"
     inkscape:window-width="2560"
     inkscape:window-height="1363"
     inkscape:window-x="-9"
     inkscape:window-y="-9"
     inkscape:window-maximized="1" />
  <metadata
     id="metadata205">
    <rdf:RDF>
      <cc:Work
         rdf:about="">
        <dc:format>image/svg+xml</dc:format>
        <dc:type
           rdf:resource="http://purl.org/dc/dcmitype/StillImage" />
        <dc:title></dc:title>
      </cc:Work>
    </rdf:RDF>
  </metadata>
  <g
     inkscape:label="Taso 1"
     inkscape:groupmode="layer"
     id="layer1"
     transform="translate(239.78139,219.18055)">
    <g
       transform="matrix(0.3527778,0,0,0.3527778,-277.7562,-344.15814)"
       id="g4645">
      <path
         inkscape:connector-curvature="0"
         style="fill:#000000;fill-opacity:1;fill-rule:evenodd;stroke:none"
         d="m 225.55078,439.80469 c 11.21875,14.42968 -7.84375,26.16015 -23.03906,25.91797 -3.83985,3.28906 -8.26563,7.20703 -16.32031,6.71875 -2.59375,-0.16016 -5.1211,-1.2461 -7.67579,-1.92188 0.0664,5.69141 1.29297,10.22656 1.4375,15.83984 h -16.79687 c 0.42578,-6.13281 1.14062,-11.97656 1.4375,-18.23828 -2.61719,-0.52734 -4.61328,1.01563 -7.19922,1.44141 -17.13672,2.80469 -43.30859,-5.62891 -37.43359,-25.91797 -2.73438,-2.42578 -5.40625,-3.17187 -7.67969,-5.76172 -9.47266,-10.78125 -3.10156,-26.05859 7.19922,-30.71875 -3.02734,-21.79687 8.76953,-37.36328 29.7539,-33.59765 2.27344,-10.4375 12.26563,-23.89063 24.96094,-17.75782 2.78516,1.34766 4.25391,3.73438 6.71875,6.24219 12.26172,0.0586 19.74219,4.89453 24.95703,11.99609 14.39844,2.24219 20.27344,13.00391 20.16016,29.75782 3.15234,4.49218 6.66797,10.58203 6.71875,17.75781 0.0508,7.60156 -3.52344,13.89062 -7.19922,18.24219"
         id="path4625" />
      <path
         inkscape:connector-curvature="0"
         style="fill:#000000;fill-opacity:1;fill-rule:evenodd;stroke:none"
         d="m 202.99219,397.08594 c -9.30469,-1.64453 -20.03907,0.25781 -23.03907,3.83984 -3.53125,4.22266 -2.39843,10.82813 -2.39843,20.63672 0,10.30078 -0.82422,18.19922 3.35937,22.08203 3.28906,3.05078 13.9336,4.32031 22.07813,2.87891 5.70703,-1.01172 7.32031,-5.05078 8.16015,-12 h -6.71875 c 0.125,5.76172 -7.14843,6.02343 -12.48047,4.80078 -3.26953,-3.14453 -2.39843,-9.26563 -2.39843,-15.35938 0,-6.08593 -0.23828,-12.83203 0.47656,-17.76172 1.6875,-2.91015 7.99219,-2.8164 12,-1.91796 1.41797,1.14453 1.875,3.24609 2.40234,5.28125 2.1875,-0.21094 5.28516,0.48437 6.71875,-0.48047 -0.35156,-6.875 -3.16015,-11.11328 -8.16015,-12"
         id="path4627" />
      <path
         inkscape:connector-curvature="0"
         style="fill:#ffffff;fill-opacity:1;fill-rule:evenodd;stroke:none"
         d="m 148.75781,405.72656 c -0.82031,4.17969 -0.48047,11.625 -0.48047,18.71875 0,7.47656 -1.66015,14.5586 4.32032,15.35938 5.97656,0.80078 4.3164,-9.81641 4.3164,-15.35938 0,-7.23828 0.36328,-13.59375 -0.47656,-18.71875 -1.6875,-2.32422 -5.99609,-2.32422 -7.67969,0 m -4.32031,-8.16015 c 3.43359,-0.83985 14.33984,-1.14844 17.75781,0 2.41797,0.8125 5.60938,4.375 6.23828,5.75781 2.05469,4.51172 0.96094,11.61328 0.96094,18.71875 0,10.83203 1.16406,21.1875 -7.19922,24 -4.53906,1.52734 -14.67187,1.52344 -19.19922,0 -2.94531,-0.99219 -6.03515,-4.6836 -6.71875,-6.71875 -1.80859,-5.38281 -0.48047,-9.74219 -0.48047,-17.76172 0,-13.29688 -1.82031,-21.44531 8.64063,-23.99609"
         id="path4629" />
      <path
         inkscape:connector-curvature="0"
         style="fill:#ffffff;fill-opacity:1;fill-rule:evenodd;stroke:none"
         d="m 211.15234,409.08594 c -1.43359,0.96484 -4.53125,0.26953 -6.71875,0.48047 -0.52734,-2.03516 -0.98437,-4.13672 -2.40234,-5.28125 -4.00781,-0.89844 -10.3125,-0.99219 -12,1.91796 -0.71484,4.92969 -0.47656,11.67579 -0.47656,17.76172 0,6.09375 -0.8711,12.21485 2.39843,15.35938 5.33204,1.22265 12.60547,0.96094 12.48047,-4.80078 h 6.71875 c -0.83984,6.94922 -2.45312,10.98828 -8.16015,12 -8.14453,1.4414 -18.78907,0.17187 -22.07813,-2.87891 -4.18359,-3.88281 -3.35937,-11.78125 -3.35937,-22.08203 0,-9.80859 -1.13282,-16.41406 2.39843,-20.63672 3,-3.58203 13.73438,-5.48437 23.03907,-3.83984 5,0.88672 7.80859,5.125 8.16015,12"
         id="path4631" />
      <path
         inkscape:connector-curvature="0"
         style="fill:#000000;fill-opacity:1;fill-rule:evenodd;stroke:none"
         d="m 258.1875,418.68359 c 3.39453,-0.37109 6.30469,0.55078 8.64062,-1.4375 3.23829,-2.76562 2.64844,-11.25 0.48047,-13.4414 -2.41406,-2.4375 -5.37109,-1.03125 -9.60156,-1.4375 0.29688,5.30078 -0.60937,11.80859 0.48047,16.3164 m 0,4.80078 c -1.10156,6.25782 -0.17188,14.54688 -0.48047,21.59766 h -10.55859 c 0.32031,-15.83984 -0.64063,-32.95703 0.48047,-47.99609 11.8789,0.8125 26.80859,-3.12891 30.71875,6.23828 1.67187,4.01562 1.67968,11.61719 -0.48047,15.35937 -3.03125,5.25 -10.22657,5.17188 -19.67969,4.80078"
         id="path4633" />
      <path
         inkscape:connector-curvature="0"
         style="fill:#000000;fill-opacity:1;fill-rule:evenodd;stroke:none"
         d="m 297.54297,397.08594 v 24 c 0,7.58203 -2.04688,18.5039 5.28125,18.71875 7.88672,0.23047 5.75781,-11.02344 5.75781,-18.71875 v -24 h 10.5625 v 21.59765 c 0,11.51953 1.51953,23.08985 -7.20312,25.91797 -4.97657,1.61719 -15.23047,1.39063 -19.19532,-0.48047 -6.76953,-3.1875 -5.76172,-12.79297 -5.76172,-24.95703 0,-8.36719 -0.3789,-16.85937 0.48047,-22.07812 z m 0,0"
         id="path4635" />
      <path
         inkscape:connector-curvature="0"
         style="fill:#000000;fill-opacity:1;fill-rule:evenodd;stroke:none"
         d="m 342.17969,397.08594 v 47.99609 h -10.5586 c 0.32032,-15.83984 -0.64062,-32.95703 0.48047,-47.99609 z m 0,0"
         id="path4637" />
      <path
         inkscape:connector-curvature="0"
         style="fill:#000000;fill-opacity:1;fill-rule:evenodd;stroke:none"
         d="m 380.01953,407.64453 c -6.75781,1.80859 -4.61719,-4.48828 -9.12109,-5.27734 -3.57422,-0.62891 -6.71485,1.85547 -6.71875,5.27734 -0.004,3.49219 4.19531,7.26172 7.19922,10.55859 2.47656,2.72266 6.63671,5.39844 8.15625,9.1211 3.02343,7.39453 -0.88282,16.37109 -7.67969,17.75781 -5.3086,1.08203 -11.72656,0.27734 -14.39453,-1.4375 -2.57813,-1.66016 -2.90625,-3.10156 -3.84375,-9.12109 h 4.32031 c 1.72266,0.83984 1.16797,3.70703 3.36328,4.80078 4.14453,2.0664 8.86719,-0.39453 8.15625,-5.76172 -0.47656,-3.60938 -4.75,-6.89063 -7.67969,-10.07813 -4.15625,-4.53125 -12.48828,-13.01171 -6.23828,-22.07812 5.01172,-7.26953 26.79297,-6.73438 24.48047,6.23828"
         id="path4639" />
      <path
         inkscape:connector-curvature="0"
         style="fill:#000000;fill-opacity:1;fill-rule:evenodd;stroke:none"
         d="m 415.57422,397.08594 v 5.28125 h -10.5586 c -1.12109,13.27734 -0.16015,28.63672 -0.48046,42.71484 h -10.5586 v -42.71484 h -10.55859 c 0.30469,-1.61719 -0.61719,-4.46094 0.48047,-5.28125 z m 0,0"
         id="path4641" />
      <path
         inkscape:connector-curvature="0"
         style="fill:#000000;fill-opacity:1;fill-rule:evenodd;stroke:none"
         d="m 429.53125,424.92578 c 0,8.75781 -0.0195,15.04688 5.76172,14.87891 5.65625,-0.16797 5.27734,-6.79297 5.27734,-15.83985 0,-9.29297 2.13281,-23.96093 -7.19922,-21.11718 -5.75,1.75 -3.83984,12.6875 -3.83984,22.07812 m -1.91797,-27.35937 c 9.23047,-2.09766 20.09375,-0.14454 22.55859,5.75781 1.78125,4.27344 0.96094,10.23047 0.96094,17.76172 0,8.94531 1.00391,18.20703 -4.32031,22.07422 -4.88281,3.55078 -18.42969,2.67968 -22.07813,0.96093 -6.3164,-2.97265 -5.75781,-12.48828 -5.75781,-22.55859 0,-12.67188 -1.74609,-21.63672 8.63672,-23.99609"
         id="path4643" />
    </g>
  </g>
</svg>
