<?xml version="1.0" encoding="iso-8859-1"?>
<!-- Generator: Adobe Illustrator 19.0.0, SVG Export Plug-In . SVG Version: 6.00 Build 0)  -->
<svg version="1.1" id="Capa_1" xmlns="http://www.w3.org/2000/svg" xmlns:xlink="http://www.w3.org/1999/xlink" x="0px" y="0px"
	 viewBox="0 0 512 512" style="enable-background:new 0 0 512 512;" xml:space="preserve">
<g>
	<g>
		<g>
			<path d="M376,422H136c-8.284,0-15,6.716-15,15s6.716,15,15,15h240c8.284,0,15-6.716,15-15S384.284,422,376,422z"/>
			<path d="M446,482H66c-8.284,0-15,6.716-15,15s6.716,15,15,15h380c8.284,0,15-6.716,15-15S454.284,482,446,482z"/>
			<path d="M256,380c104.93,0,190-85.395,190-190C446,85.233,360.767,0,256,0C151.329,0,66,85.175,66,190
				C66,294.767,151.233,380,256,380z M343.791,323.694L280.919,205h134.372C410.66,254.579,383.315,297.653,343.791,323.694z
				 M271,30.709C347.276,37.835,408.165,98.724,415.291,175H271V30.709z M241,30.709v123.078l-86.981-86.981
				C178.106,46.831,208.125,33.78,241,30.709z M132.806,88.019L243.8,199.013l73.505,138.768C298.413,345.647,277.707,350,256,350
				c-88.225,0-160-71.775-160-160C96,151.277,109.83,115.726,132.806,88.019z"/>
		</g>
	</g>
</g>
<g>
</g>
<g>
</g>
<g>
</g>
<g>
</g>
<g>
</g>
<g>
</g>
<g>
</g>
<g>
</g>
<g>
</g>
<g>
</g>
<g>
</g>
<g>
</g>
<g>
</g>
<g>
</g>
<g>
</g>
</svg>
